# xmcd CD database file
#
# Track frame offsets:
#	150
#	40293
#	66108
#	95436
#	138232
#	169618
#	202086
#	226473
#	258010
#	281859
#
# Disc length: 4173 seconds
#
# Revision: 2
# Processed by: cddbd v1.5.2PL0 Copyright (c) Steve Scherf et al.
# Submitted via: CDex 1.51
#
DISCID=8d104b0a
DTITLE=Sarah Lark - Der Ruf des Kiwis CD01
DYEAR=2009
DGENRE=Hörbuch
TTITLE0=Der Ruf des Kiwis CD01-01
TTITLE1=Der Ruf des Kiwis CD01-02
TTITLE2=Der Ruf des Kiwis CD01-03
TTITLE3=Der Ruf des Kiwis CD01-04
TTITLE4=Der Ruf des Kiwis CD01-05
TTITLE5=Der Ruf des Kiwis CD01-06
TTITLE6=Der Ruf des Kiwis CD01-07
TTITLE7=Der Ruf des Kiwis CD01-08
TTITLE8=Der Ruf des Kiwis CD01-09
TTITLE9=Der Ruf des Kiwis CD01-10
EXTD=YEAR: 2009
EXTT0=
EXTT1=
EXTT2=
EXTT3=
EXTT4=
EXTT5=
EXTT6=
EXTT7=
EXTT8=
EXTT9=
PLAYORDER=
